<?xml version="1.0" standalone="no"?><!-- Generator: Adobe Fireworks CS6, Export SVG Extension by Aaron Beall (http://fireworks.abeall.com) . Version: 0.6.1  --><!DOCTYPE svg PUBLIC "-//W3C//DTD SVG 1.1//EN" "http://www.w3.org/Graphics/SVG/1.1/DTD/svg11.dtd"><svg id="Untitled-Page%201" viewBox="0 0 23 23" style="background-color:#ffffff00" version="1.1"	xmlns="http://www.w3.org/2000/svg" xmlns:xlink="http://www.w3.org/1999/xlink" xml:space="preserve"	x="0px" y="0px" width="23px" height="23px">	<g id="Layer%201">		<path id="Elipse" d="M 0 11.5 C 0 5.1487 5.1487 0 11.5 0 C 17.8513 0 23 5.1487 23 11.5 C 23 17.8513 17.8513 23 11.5 23 C 5.1487 23 0 17.8513 0 11.5 Z" stroke="#c1c1c1" stroke-width="2" fill="none"/>		<path d="M 13.37 16.7898 C 13.1465 16.8342 12.9463 16.8557 12.7693 16.8557 C 12.392 16.8557 12.1272 16.7983 11.9742 16.6833 C 11.8213 16.5681 11.7448 16.3513 11.7448 16.0325 C 11.7448 15.9065 11.7672 15.7206 11.8137 15.4731 C 11.8595 15.2263 11.9113 15.0068 11.969 14.8145 L 12.677 12.4198 C 12.746 12.2002 12.7939 11.9585 12.8195 11.6953 C 12.845 11.4321 12.8585 11.2483 12.8585 11.1438 C 12.8585 10.6389 12.6732 10.229 12.3035 9.9136 C 11.933 9.5981 11.4072 9.4402 10.7255 9.4402 C 10.3467 9.4402 9.9456 9.5017 9.5217 9.624 C 9.0972 9.7463 8.6533 9.8928 8.189 10.0645 L 8 10.7676 C 8.1388 10.7305 8.3053 10.6904 8.4988 10.6482 C 8.6923 10.606 8.882 10.5845 9.0673 10.5845 C 9.4423 10.5845 9.6965 10.6453 9.83 10.7654 C 9.9628 10.8864 10.0295 11.1002 10.0295 11.4077 C 10.0295 11.5779 10.0077 11.7654 9.9642 11.9714 C 9.9208 12.1772 9.8676 12.3955 9.8044 12.6257 L 9.0935 15.0289 C 9.0298 15.2815 8.9833 15.5074 8.9547 15.7078 C 8.9263 15.908 8.912 16.1047 8.912 16.2964 C 8.912 16.7905 9.104 17.1982 9.4888 17.5187 C 9.8728 17.8391 10.412 18 11.1064 18 C 11.5573 18 11.9532 17.9463 12.2944 17.8398 C 12.6357 17.7332 13.0925 17.5787 13.6655 17.3756 L 13.856 16.6726 C 13.7555 16.7068 13.5935 16.7455 13.37 16.7898 L 13.37 16.7898 ZM 13.5012 5.4448 C 13.1682 5.1487 12.7686 5 12.3005 5 C 11.8318 5 11.4298 5.1487 11.0945 5.4448 C 10.7593 5.741 10.592 6.0979 10.592 6.5149 C 10.592 6.9319 10.7593 7.2874 11.0945 7.5806 C 11.4298 7.8745 11.8318 8.0211 12.3005 8.0211 C 12.7686 8.0211 13.1682 7.8745 13.5012 7.5806 C 13.8335 7.2874 14 6.9319 14 6.5149 C 14 6.0979 13.8335 5.741 13.5012 5.4448 L 13.5012 5.4448 Z" fill="#c1c1c1"/>	</g></svg>