<?xml version="1.0" encoding="utf-8"?>
<!-- Generator: Adobe Illustrator 17.1.0, SVG Export Plug-In . SVG Version: 6.00 Build 0)  -->
<!DOCTYPE svg PUBLIC "-//W3C//DTD SVG 1.1//EN" "http://www.w3.org/Graphics/SVG/1.1/DTD/svg11.dtd">
<svg version="1.1" id="Untitled-Page_x25_201" xmlns="http://www.w3.org/2000/svg" xmlns:xlink="http://www.w3.org/1999/xlink"
	 x="0px" y="0px" viewBox="-1.7 -1.7 26.3 26.2" enable-background="new -1.7 -1.7 26.3 26.2" xml:space="preserve">
<path id="Elipse" fill="none" stroke="#C1C1C1" stroke-width="2" d="M0,11.5C0,5.1,5.1,0,11.5,0S23,5.1,23,11.5S17.9,23,11.5,23
	S0,17.9,0,11.5z"/>
<path fill="#C1C1C1" d="M18,11.6c0,0,0-0.1,0-0.1s0-0.1,0-0.1C17.9,8,15.2,5.2,11.9,5c-0.1,0-0.3,0-0.4,0s-0.3,0-0.4,0
	C7.8,5.2,5.1,8,5,11.4c0,0,0,0.1,0,0.1s0,0.1,0,0.1c0.1,3.4,2.7,6.1,6.1,6.3c0.1,0,0.3,0,0.4,0s0.3,0,0.4,0
	C15.2,17.8,17.9,15,18,11.6z M16.5,14.2h-1.9c0.2-0.7,0.3-1.5,0.3-2.3h2.2C17.1,12.7,16.9,13.5,16.5,14.2z M11.9,11.1V8.8h1.9
	c0.2,0.7,0.3,1.5,0.3,2.3H11.9z M11.1,11.1H8.9c0-0.8,0.1-1.6,0.3-2.3h1.9V11.1z M11.1,11.9v2.3H9.2c-0.2-0.7-0.3-1.5-0.3-2.3H11.1z
	 M11.9,11.9h2.3c0,0.8-0.1,1.6-0.3,2.3h-1.9V11.9z M14.9,11.1c0-0.8-0.1-1.6-0.3-2.3h1.9c0.4,0.7,0.6,1.4,0.6,2.3H14.9z M11.9,8.1
	V5.9c0.7,0.2,1.3,1,1.7,2.2H11.9z M11.1,5.9v2.2H9.4C9.8,6.9,10.4,6.1,11.1,5.9z M6.5,8.8h1.9c-0.2,0.7-0.3,1.5-0.3,2.3H5.8
	C5.9,10.3,6.1,9.5,6.5,8.8z M8.1,11.9c0,0.8,0.1,1.6,0.3,2.3H6.5c-0.4-0.7-0.6-1.4-0.6-2.3H8.1z M11.1,14.9v2.2
	c-0.7-0.2-1.3-1-1.7-2.2H11.1z M11.9,17.1v-2.2h1.7C13.2,16.1,12.6,16.9,11.9,17.1z M16,8.1h-1.6c-0.2-0.7-0.6-1.4-0.9-1.9
	C14.5,6.6,15.4,7.2,16,8.1z M9.5,6.2C9.1,6.7,8.8,7.3,8.6,8.1H7C7.6,7.2,8.5,6.6,9.5,6.2z M7,14.9h1.6c0.2,0.7,0.6,1.4,0.9,1.9
	C8.5,16.4,7.6,15.8,7,14.9z M13.5,16.8c0.4-0.5,0.7-1.1,0.9-1.9H16C15.4,15.8,14.5,16.4,13.5,16.8z"/>
</svg>
